<svg width="602" height="728" viewBox="0 0 602 728" fill="none" xmlns="http://www.w3.org/2000/svg">
<path d="M0.925093 638.26C0.37436 638.301 -0.0385606 638.781 0.00280948 639.332L0.676973 648.307C0.718343 648.858 1.19834 649.271 1.74907 649.229C2.2998 649.188 2.71272 648.708 2.67135 648.157L2.0721 640.18L10.0496 639.58C10.6004 639.539 11.0133 639.059 10.9719 638.508C10.9305 637.957 10.4505 637.545 9.89981 637.586L0.925093 638.26ZM600 363.032C600 563.495 437.759 726 237.629 726V728C438.867 728 602 564.597 602 363.032H600ZM237.629 726C147.498 726 65.0545 693.042 1.65215 638.499L0.347847 640.015C64.099 694.858 147.001 728 237.629 728V726ZM265.429 1.99745C453.33 15.4396 600 171.388 600 363.032H602C602 170.339 454.52 13.5196 265.571 0.00254908L265.429 1.99745Z" fill="url(#paint0_linear)"/>
<defs>
<linearGradient id="paint0_linear" x1="289" y1="1.00001" x2="12.5" y2="772" gradientUnits="userSpaceOnUse">
<stop stop-color="#DF4AD9"/>
<stop offset="1" stop-color="#DF4AD9" stop-opacity="0.24"/>
</linearGradient>
</defs>
</svg>
